<svg width="25" height="24" viewBox="0 0 25 24" fill="none" xmlns="http://www.w3.org/2000/svg">
<path d="M20.8123 7.41863C20.7155 7.47938 18.4119 8.75775 18.4119 11.5924C18.5206 14.8253 21.3189 15.9589 21.3669 15.9589C21.3189 16.0196 20.9443 17.5035 19.835 19.059C18.9549 20.3993 17.9776 21.75 16.4938 21.75C15.0823 21.75 14.5756 20.8571 12.947 20.8571C11.198 20.8571 10.703 21.75 9.36387 21.75C7.88 21.75 6.83037 20.3269 5.90187 18.9994C4.69587 17.262 3.67062 14.5357 3.63425 11.9183C3.60987 10.5311 3.87575 9.16762 4.55075 8.00962C5.50362 6.39262 7.20462 5.29537 9.06237 5.259C10.4855 5.211 11.7522 6.23625 12.6211 6.23625C13.4536 6.23625 15.0099 5.259 16.7705 5.259C17.5306 5.25975 19.5575 5.4885 20.8123 7.41863ZM12.5007 4.98187C12.2472 3.71512 12.947 2.44837 13.5984 1.64025C14.4309 0.663375 15.7456 0 16.8793 0C16.9516 1.26675 16.493 2.50912 15.6733 3.414C14.9375 4.39125 13.6707 5.12663 12.5007 4.98187Z" fill="#282828"/>
</svg>
