<svg width="24" height="24" viewBox="0 0 24 24" fill="none" xmlns="http://www.w3.org/2000/svg">
<path d="M16.8233 14.4226C18.5415 13.47 19.8538 12.7424 19.9731 12.6762C20.3292 12.4788 20.7022 11.975 19.9731 11.5723C19.7388 11.4426 18.4618 10.7374 16.8213 9.83081L14.5649 12.1338L16.8233 14.4226Z" fill="#FFE300"/>
<path d="M14.5648 12.1338L7.34805 19.4994C7.51103 19.5204 7.70705 19.4766 7.93252 19.3516C8.3993 19.0929 13.4122 16.3135 16.8233 14.4223L14.5648 12.1338Z" fill="#FF4E54"/>
<path d="M14.5648 12.1338L16.8212 9.83084C16.8212 9.83084 8.43459 5.19628 7.93251 4.91883C7.73953 4.81216 7.52912 4.77493 7.34288 4.81694L14.5648 12.1338Z" fill="#00F085"/>
<path d="M14.5648 12.1338L7.34277 4.81702C7.04447 4.88441 6.8 5.14592 6.8 5.67155V18.6215C6.8 19.1165 6.99231 19.4647 7.34794 19.4994L14.5648 12.1338Z" fill="#00E0FF"/>
</svg>
